#N canvas 100 100 960 700 12;
#X text 40 24 WABRO OSC -> MIDI CC bridge. Receive WABRO hub OSC on UDP 9000 and output CC 1-8 on MIDI channel 1.;
#X obj 40 70 netreceive -u -b 9000;
#X obj 40 105 oscparse;
#X obj 40 140 list trim;
#X obj 40 175 route wabro;
#X obj 40 210 route macro;
#X obj 40 245 route 1 2 3 4 5 6 7 8;
#X obj 40 295 * 127;
#X obj 40 325 int;
#X obj 40 355 ctlout 1 1;
#X obj 130 295 * 127;
#X obj 130 325 int;
#X obj 130 355 ctlout 2 1;
#X obj 220 295 * 127;
#X obj 220 325 int;
#X obj 220 355 ctlout 3 1;
#X obj 310 295 * 127;
#X obj 310 325 int;
#X obj 310 355 ctlout 4 1;
#X obj 400 295 * 127;
#X obj 400 325 int;
#X obj 400 355 ctlout 5 1;
#X obj 490 295 * 127;
#X obj 490 325 int;
#X obj 490 355 ctlout 6 1;
#X obj 580 295 * 127;
#X obj 580 325 int;
#X obj 580 355 ctlout 7 1;
#X obj 670 295 * 127;
#X obj 670 325 int;
#X obj 670 355 ctlout 8 1;
#X text 40 420 CC 1 Snare Fundamental;
#X text 40 445 CC 2 Snare Noise;
#X text 40 470 CC 3 Snare Transient Bite;
#X text 40 495 CC 4 Bass Filter Motion;
#X text 40 520 CC 5 Bass Distortion;
#X text 40 545 CC 6 Spectral Rotation;
#X text 40 570 CC 7 Space / Width;
#X text 40 595 CC 8 Glitch / Fill Probability;
#X connect 1 0 2 0;
#X connect 2 0 3 0;
#X connect 3 0 4 0;
#X connect 4 0 5 0;
#X connect 5 0 6 0;
#X connect 6 0 7 0;
#X connect 6 1 10 0;
#X connect 6 2 13 0;
#X connect 6 3 16 0;
#X connect 6 4 19 0;
#X connect 6 5 22 0;
#X connect 6 6 25 0;
#X connect 6 7 28 0;
#X connect 7 0 8 0;
#X connect 8 0 9 0;
#X connect 10 0 11 0;
#X connect 11 0 12 0;
#X connect 13 0 14 0;
#X connect 14 0 15 0;
#X connect 16 0 17 0;
#X connect 17 0 18 0;
#X connect 19 0 20 0;
#X connect 20 0 21 0;
#X connect 22 0 23 0;
#X connect 23 0 24 0;
#X connect 25 0 26 0;
#X connect 26 0 27 0;
#X connect 28 0 29 0;
#X connect 29 0 30 0;

